
        <svg xmlns="http://www.w3.org/2000/svg" xmlns:xlink="http://www.w3.org/1999/xlink" version="1.1" width="3187.5" 
        height="1383.5767320213024" viewBox="0 0 3187.5 1383.5767320213024">
			
			<g transform="scale(9.375) translate(10, 10)">
				<defs id="SvgjsDefs1478"><linearGradient id="SvgjsLinearGradient1483"><stop id="SvgjsStop1484" stop-color="#8f5e25" offset="0"></stop><stop id="SvgjsStop1485" stop-color="#fbf4a1" offset="0.5"></stop><stop id="SvgjsStop1486" stop-color="#8f5e25" offset="1"></stop></linearGradient><linearGradient id="SvgjsLinearGradient1487"><stop id="SvgjsStop1488" stop-color="#8f5e25" offset="0"></stop><stop id="SvgjsStop1489" stop-color="#fbf4a1" offset="0.5"></stop><stop id="SvgjsStop1490" stop-color="#8f5e25" offset="1"></stop></linearGradient></defs><g id="SvgjsG1479" featureKey="symbolFeature-0" transform="matrix(1.5075787254178243,0,0,1.5075787254178243,-25.37627932901521,-11.589074378959966)" fill="url(#SvgjsLinearGradient1483)"><path xmlns="http://www.w3.org/2000/svg" d="M57.584,8.783c-0.022,0.008-0.043,0.015-0.065,0.023c-3.989,1.372-7.164,5.871-8.432,9.733  c-1.245,3.803,0.352,9.056-2.75,12.111c-4.442,4.375-7.823-6.447-13.763,1.878c5.644-4.164,7.148,2.189,9.811,4.155  c2.263,1.67,8.804,2.666,7.183,6.577c-1.99,4.806-7.71-0.659-5.012-2.073c0.562-0.271,0.797,0.013,0.305,0.479  c-0.492,0.462,0.027,1.393,0.894,1.601c0.82,0.199,1.699-0.352,1.969-1.004c0.282-0.694,0.044-1.693-1.142-1.978  c-1.187-0.284-2.794,0.093-3.5,1.803c-0.706,1.714,0.678,3.345,2.545,3.795c2.368,0.568,4.297-0.531,5.561-2.032  c-1.562,4.622-7.508,4.268-11.873-1.317c-3.913-5.006-16.603-2.141-14.115-11.192c-4.905,9.311,4.483,5.496,7.682,11.198  c2.926,5.211,5.64,10.7,13.204,9.703c4.51-0.595,7.554-3.283,9.919-6.483c-2.934,4.895-7.211,8.552-14.442,7.99  c-7.199-0.561-20.243-5.859-24.267,4.79l0.22,0.184c4.103-10.627,17.086-5.207,24.277-4.596c8.655,0.735,13.116-4.621,16.116-10.917  c-0.273,4.094-4.252,8.664-8.123,10.521c-10.258,4.923-19.533-4.186-29.118,5.523c-5.958,6.036-5.268,16.574,4.141,17.545  c3.918,0.404,8.8-3.465,5.16-6.661c3.136,3.608-3.239,5.764-6.195,4.424c-5.103-2.311-2.158-9.303,3.268-9.804  c0.266-0.024,0.527-0.029,0.78-0.024c-2.417,0.314-5.171,1.753-5.469,4.767c-0.181,1.85,0.954,3.651,2.863,3.579  c1.907-0.075,2.808-1.412,2.926-2.586c0.115-1.173-0.781-1.723-1.555-1.696c-0.725,0.028-1.557,0.645-1.637,1.458  c-0.085,0.857,0.654,1.64,1.268,1.346c0.618-0.293,0.818,0.015,0.367,0.436c-0.594,0.517-4.108,0.551-3.512-2.476  c1.407-7.138,11.714-3.775,10.131,3.143c-0.679,2.967-1.827,3.954,0.148,6.448c3.155,3.984,8.83,1.628,11.651-1.304  c1.596-1.657,3.09-4.138,4.919-5.999c-2.874,3.727-3.723,8.983-8.696,11.131c-3.042,1.314-3.915,0.002-6.728,2.232  c-2.338,1.852-2.672,5.998,0.151,7.1c-2.469-1.426-2.009-5.267,0.391-6.893c2.979-2.021,3.448-0.55,6.418-2.02  c6.46-3.192,6.235-10.239,11.283-13.28c-0.903,1.432-2.124,2.495-2.403,4.346c-0.309,2.039-0.019,3.888,1.123,5.56  c0.35,0.514,0.776,1.099,1.164,1.723c-0.346,1.412-1.516,2.596-3.096,2.448c-1.35-0.126-2.046-1.164-1.326-2.368  c0.592-0.989,2.301-1.511,2.554-0.151c0.569-1.492-1.592-2.124-2.716-1.497c-1.842,1.023-1.942,3.842,0.002,4.405  c1.965,0.567,4.07-0.169,5.021-2.071c0.532,1.028,0.852,2.12,0.492,3.146c-0.566,1.607-2.724,1.696-3.01,0.038  c-0.818,2.13,1.699,3.343,3.622,3.117c2.869-0.336,4.805-2.515,5.514-5.051c1.669-5.945-1.763-9.713,1.794-15.439  c3.031-4.881,11.985-18.724,9.663-23.782c-1.256-2.736-2.391-2.459-3.479-3.006c-2.913-1.458-5.216-4.696-4.973-7.436  c0.112-1.282-0.954-2.246-0.507-3.691c0.637-2.06,3.549-3.733,4.958-5.281c1.385-1.525,1.881-3.349,3.054-4.816  c2.114,4.552-5.583,6.95-5.139,11.345c-0.418-4.064,12.203-10.083,8.558-15.773c2.84,4.432,9.428,3.298,9.553,9.298  C82.931,14.001,71.067,4.366,57.584,8.783z M34.085,31.29c0.005-0.008,0.013-0.014,0.019-0.022c0.005-0.003,0.009-0.007,0.013-0.011  C34.106,31.268,34.096,31.279,34.085,31.29z"></path></g><g id="SvgjsG1480" featureKey="nameFeature-0" transform="matrix(0.5163688841732968,0,0,0.5163688841732968,119.69017896496467,49.1960138600796)" fill="url(#SvgjsLinearGradient1487)"><path d="M21.68 14.96 l2.56 0 l-1.56 5.56 l-2.4 0 c0.44 -3.16 -0.6 -3.08 -1.84 -3.08 l-2.36 0 l0 19.04 c0 1 0.76 1.4 3.08 1.48 l0 2.04 c-4.52 -0.12 -9.12 -0.12 -13.6 0 l0 -2.04 c2.28 -0.08 3.04 -0.48 3.04 -1.48 l0 -19.04 l-2.56 0 c-1.24 0 -1.76 0.4 -2.96 3.08 l-2.48 0 l1.36 -5.56 l2.56 0 c1.6 0.28 2.64 0.2 5.08 0.2 l7.08 0 c2.36 0 3.44 0.08 5 -0.2 z M41.2 35.24 c0.76 0 0.84 0.76 0.28 1.64 c-1.64 2.4 -3.8 3.52 -7.08 3.52 c-5.84 0 -10.76 -3.64 -10.76 -10.6 c0 -6.84 5.24 -10.16 10.04 -10.16 c5.8 0 9.12 4.12 9.12 7.96 c0 2.12 -0.88 3.52 -3.12 3.52 l-9.08 0 c0.16 3.04 0.52 7.24 4.68 7.24 c2.24 0 3.48 -0.88 4.52 -2.52 c0.28 -0.48 0.4 -0.6 0.96 -0.6 l0.44 0 z M36.160000000000004 28.6 c0 -4.28 -0.56 -6.88 -2.56 -6.88 c-2.16 0 -2.96 2.56 -3 6.88 l5.56 0 z M62.760000000000005 35.24 c0.76 0 0.84 0.76 0.28 1.64 c-1.64 2.4 -3.8 3.52 -7.08 3.52 c-5.84 0 -10.76 -3.64 -10.76 -10.6 c0 -6.84 5.24 -10.16 10.04 -10.16 c5.8 0 9.12 4.12 9.12 7.96 c0 2.12 -0.88 3.52 -3.12 3.52 l-9.08 0 c0.16 3.04 0.52 7.24 4.68 7.24 c2.24 0 3.48 -0.88 4.52 -2.52 c0.28 -0.48 0.4 -0.6 0.96 -0.6 l0.44 0 z M57.72 28.6 c0 -4.28 -0.56 -6.88 -2.56 -6.88 c-2.16 0 -2.96 2.56 -3 6.88 l5.56 0 z M83.36 34.24 c0 3.76 -3.84 6.4 -7.4 6.4 c-2.96 0 -5 -1.56 -5.72 -1.56 c-0.36 0 -0.56 0.16 -0.56 0.88 l-2.12 0 l-0.52 -5.8 l1.24 0 c0.76 0 1.08 0.2 1.4 0.92 c0.84 2.04 3.12 3.64 5.32 3.64 c1.52 0 2.48 -0.92 2.48 -2.12 c0 -1.64 -1.44 -2.44 -3.24 -3.16 c-2.4 -1 -7.48 -2.84 -7.48 -7.48 c0 -4.04 3.36 -6.32 7.12 -6.32 c3 0 3.88 1.12 4.76 1.12 c0.68 0 0.92 -0.36 0.96 -0.8 l2.12 0 l0.36 5.92 l-1.08 0 c-0.72 0 -1.36 -0.16 -1.64 -0.96 c-0.88 -2.52 -2.44 -3.4 -4.24 -3.4 c-1.28 0 -2.6 0.76 -2.6 2.24 c0 1.56 1.52 2.36 3.32 3 c2.28 0.92 7.52 2.92 7.52 7.48 z M112.28 26.64 c5.36 1.16 7.2 3.44 7.2 6.48 c0 4.56 -3.96 6.88 -12.04 6.88 l-13.28 0 l0 -2.04 c2.32 -0.16 3 -0.44 3 -1.44 l0 -18.2 c0 -0.88 -0.84 -1.04 -2.6 -1.16 l0 -2 c4.28 0.16 8.36 0 10.12 0 c9.48 0 12.2 2.8 12.2 6.4 c0 1.96 -1.32 4.12 -4.6 5.08 z M104.64 17.2 l0 9.12 c4.04 -0.8 5.48 -2 5.48 -4.76 s-1.04 -4.4 -3.88 -4.4 c-0.68 0 -1.12 0 -1.6 0.04 z M107.47999999999999 37.76 c2.6 0 4.56 -1.12 4.56 -4.76 c0 -3.24 -1.24 -4.92 -5.36 -4.92 l-2.04 0.4 l0 7.8 c0 1 0.12 1.48 1.8 1.48 l1.04 0 z M137.2 19.56 c1.88 0 3.48 1.28 3.48 3.28 c0 2.2 -1.96 3 -3.04 3 c-1.76 0 -2.72 -0.92 -3.64 -0.92 c-2.52 0 -2.72 2.76 -2.92 4.08 l0 7.48 c0 1 1 1.32 2.72 1.48 l0 2.04 c-4.12 -0.08 -8.32 -0.08 -12.44 0 l0 -2.04 c1.44 -0.16 2.52 -0.48 2.52 -1.48 l0 -10.08 c0 -1.64 -1.12 -1.88 -2.6 -1.6 l0 -2.04 c4.88 -1.08 7.08 -3.44 8.36 -3.44 c1.16 0 1.6 0.76 1.44 2.08 l-0.6 4.36 c1.48 -4.56 3.68 -6.2 6.72 -6.2 z M160.16 33.8 c0 1.56 1.12 1.96 2.68 1.56 l0 2.24 c-4.64 1.2 -7.24 2.96 -8.24 2.96 c-1.2 0 -1.72 -0.68 -1.6 -2.04 l0.32 -2.84 c-0.76 2.36 -2.16 4.88 -6.12 4.88 c-3.4 0 -6.16 -1.72 -6.16 -5.16 c0 -4.2 3.4 -6.4 11.96 -8.12 l-0.08 -3.72 c-0.08 -1.92 -0.84 -2.2 -1.52 -2.2 c-4.56 0 -1 6.36 -6.52 6.36 c-1.96 0 -2.84 -1.04 -2.84 -2.6 c0 -3.08 4.28 -5.52 9.88 -5.52 c4.12 0 8.24 0.4 8.24 5.04 l0 9.16 z M150.04 37.44 c2 0 2.84 -3.28 2.96 -4.84 l0 -3.64 c-4.44 0.84 -4.88 4.28 -4.88 5.76 c0 1.56 0.72 2.72 1.92 2.72 z M170.12 18.6 c-2.04 0 -3.68 -1.68 -3.68 -3.68 c0 -2.08 1.64 -3.68 3.68 -3.68 c2.08 0 3.6 1.6 3.6 3.68 c0 2 -1.52 3.68 -3.6 3.68 z M173.96 36.48 c0 1 1.08 1.32 2.68 1.48 l0 2.04 c-4.08 -0.12 -8.28 -0.12 -12.36 0 l0 -2.04 c1.4 -0.16 2.56 -0.48 2.56 -1.48 l0 -10.24 c0 -1.6 -1.12 -1.88 -2.6 -1.72 l0 -2 c5.24 -0.96 7.32 -3.08 8.76 -3.08 c0.76 0 1.2 0.52 1.2 1.24 c0 2.24 -0.24 3.88 -0.24 6.44 l0 9.36 z M199.44 33.76 c0 1.56 1.08 1.96 2.64 1.56 l0 2.28 c-4.6 1.2 -7.2 2.96 -8.2 2.96 c-1.24 0 -1.76 -0.72 -1.6 -2.12 l0.04 -1 c-0.48 1.56 -1.64 2.96 -4.52 2.96 c-3.96 0 -9.56 -2.92 -9.56 -10.32 c0 -7.16 5.28 -10.44 9.2 -10.44 c2.56 0 4.16 1.44 4.84 2.76 l0 -3.44 c0 -1.64 -1.12 -2.16 -2.6 -1.88 l0 -1.88 c4.88 -1 7.04 -2.84 8.28 -2.84 c1.2 0 1.48 0.6 1.48 1.76 l0 19.64 z M189.35999999999999 38.24 c1.56 0 2.52 -1.88 2.92 -4.04 l0 -9.64 c-0.6 -1.28 -2.16 -2.72 -3.64 -2.72 c-2.28 0 -2.96 2.96 -2.96 6.8 c0 6.12 1.6 9.6 3.68 9.6 z M230.8 26.64 c5.36 1.16 7.2 3.44 7.2 6.48 c0 4.56 -3.96 6.88 -12.04 6.88 l-13.28 0 l0 -2.04 c2.32 -0.16 3 -0.44 3 -1.44 l0 -18.2 c0 -0.88 -0.84 -1.04 -2.6 -1.16 l0 -2 c4.28 0.16 8.36 0 10.12 0 c9.48 0 12.2 2.8 12.2 6.4 c0 1.96 -1.32 4.12 -4.6 5.08 z M223.16 17.2 l0 9.12 c4.04 -0.8 5.48 -2 5.48 -4.76 s-1.04 -4.4 -3.88 -4.4 c-0.68 0 -1.12 0 -1.6 0.04 z M226 37.76 c2.6 0 4.56 -1.12 4.56 -4.76 c0 -3.24 -1.24 -4.92 -5.36 -4.92 l-2.04 0.4 l0 7.8 c0 1 0.12 1.48 1.8 1.48 l1.04 0 z M250.44 19.64 c4.48 0 10.44 2.68 10.44 10.16 c0 7.52 -5.96 10.6 -10.48 10.6 c-4.48 0 -10.44 -3.08 -10.44 -10.28 c0 -7.8 5.96 -10.48 10.48 -10.48 z M253.32 31.64 c0 -6.2 -1.28 -9.92 -3.36 -9.92 c-1.76 0 -2.4 2.8 -2.4 6.72 c0 6.04 1.28 9.92 3.36 9.92 c1.88 0 2.4 -2.84 2.4 -6.72 z M284.88 34.08 c0 1.6 1.12 1.96 2.68 1.6 l0 1.92 c-4.64 1.2 -7.4 2.96 -8.2 2.96 c-1.24 0 -1.84 -0.84 -1.68 -2.24 l0.48 -2.56 c-0.96 1.72 -3 4.96 -7 4.96 c-2.96 0 -6.56 -1.44 -6.56 -7.24 l0 -10.04 c0 -0.8 -0.32 -1.2 -1.12 -1.16 l-1.2 0.04 l0 -2 l8.16 -0.52 c0.64 -0.04 1.32 0.36 1.32 1.24 l0 11.6 c0 2.56 -0.32 4.96 1.72 4.96 s3.84 -3.92 4.28 -5.04 l0 -9.12 c0 -0.8 -0.4 -1.2 -1.2 -1.16 l-1.12 0.04 l0 -2 l8.12 -0.52 c0.56 -0.04 1.32 0.36 1.32 1.24 l0 13.04 z M302.08000000000004 38.96 c-1.12 0.84 -2.72 1.32 -4.6 1.32 c-4.2 0 -6.64 -2.32 -6.64 -6.96 l0 -11.16 l-1.4 0 c-0.52 0 -0.68 -0.24 -0.68 -0.76 l0 -0.68 c0 -0.52 0.16 -0.76 0.68 -0.76 c3.44 0 4.8 -2.44 5.12 -5.44 l3.44 0 l0 5.44 l3.32 0 c0.52 0 0.68 0.24 0.68 0.76 l0 0.68 c0 0.52 -0.16 0.76 -0.68 0.76 l-3.32 0 l0 11.92 c0 2.08 0.12 3.6 1.76 3.6 c0.64 0 1.64 -0.32 2.32 -0.92 l0 2.2 z M309.88000000000005 18.6 c-2.04 0 -3.68 -1.68 -3.68 -3.68 c0 -2.08 1.64 -3.68 3.68 -3.68 c2.08 0 3.6 1.6 3.6 3.68 c0 2 -1.52 3.68 -3.6 3.68 z M313.72 36.48 c0 1 1.08 1.32 2.68 1.48 l0 2.04 c-4.08 -0.12 -8.28 -0.12 -12.36 0 l0 -2.04 c1.4 -0.16 2.56 -0.48 2.56 -1.48 l0 -10.24 c0 -1.6 -1.12 -1.88 -2.6 -1.72 l0 -2 c5.24 -0.96 7.32 -3.08 8.76 -3.08 c0.76 0 1.2 0.52 1.2 1.24 c0 2.24 -0.24 3.88 -0.24 6.44 l0 9.36 z M327.2800000000001 40.76 c-3.4 0 -9.4 -3.28 -9.4 -11 c0 -6.56 5.44 -10.12 9.24 -10.12 c4.72 0 4.44 2.64 6.76 2.64 c1.32 0 2.2 -0.92 2.32 -2.32 l1.16 0 c1.12 0 1.72 0.6 1.72 1.68 l0 20.04 c0 1.64 1.12 1.84 3 1.52 l0 2.2 c-5.28 1.12 -7.44 3.28 -8.68 3.28 c-1.16 0 -1.44 -0.56 -1.44 -1.76 l0 -8.4 c-0.88 1.04 -2.04 2.24 -4.68 2.24 z M328.36000000000007 21.84 c-2.24 0 -2.92 2.96 -2.92 6.48 c0 6.36 1.84 10.2 3.88 10.2 c1.28 0 2.6 -1.96 2.64 -3.72 l0 -8.8 c-0.68 -3.28 -2.68 -4.16 -3.6 -4.16 z M364.88000000000005 34.08 c0 1.6 1.12 1.96 2.68 1.6 l0 1.92 c-4.64 1.2 -7.4 2.96 -8.2 2.96 c-1.24 0 -1.84 -0.84 -1.68 -2.24 l0.48 -2.56 c-0.96 1.72 -3 4.96 -7 4.96 c-2.96 0 -6.56 -1.44 -6.56 -7.24 l0 -10.04 c0 -0.8 -0.32 -1.2 -1.12 -1.16 l-1.2 0.04 l0 -2 l8.16 -0.52 c0.64 -0.04 1.32 0.36 1.32 1.24 l0 11.6 c0 2.56 -0.32 4.96 1.72 4.96 s3.84 -3.92 4.28 -5.04 l0 -9.12 c0 -0.8 -0.4 -1.2 -1.2 -1.16 l-1.12 0.04 l0 -2 l8.12 -0.52 c0.56 -0.04 1.32 0.36 1.32 1.24 l0 13.04 z M386.32000000000005 35.24 c0.76 0 0.84 0.76 0.28 1.64 c-1.64 2.4 -3.8 3.52 -7.08 3.52 c-5.84 0 -10.76 -3.64 -10.76 -10.6 c0 -6.84 5.24 -10.16 10.04 -10.16 c5.8 0 9.12 4.12 9.12 7.96 c0 2.12 -0.88 3.52 -3.12 3.52 l-9.08 0 c0.16 3.04 0.52 7.24 4.68 7.24 c2.24 0 3.48 -0.88 4.52 -2.52 c0.28 -0.48 0.4 -0.6 0.96 -0.6 l0.44 0 z M381.2800000000001 28.6 c0 -4.28 -0.56 -6.88 -2.56 -6.88 c-2.16 0 -2.96 2.56 -3 6.88 l5.56 0 z"></path></g>
			</g>
		</svg>
	